<mxfile host="Electron" modified="2024-05-30T09:14:45.681Z" agent="Mozilla/5.0 (Macintosh; Intel Mac OS X 10_15_7) AppleWebKit/537.36 (KHTML, like Gecko) draw.io/24.4.8 Chrome/124.0.6367.207 Electron/30.0.6 Safari/537.36" etag="NVckUOEiA_kNBchYuqL9" version="24.4.8" type="device">
  <diagram name="Pagina-1" id="7W3OKKxvmQ_qM88fhC1Q">
    <mxGraphModel dx="954" dy="610" grid="1" gridSize="10" guides="1" tooltips="1" connect="1" arrows="1" fold="1" page="1" pageScale="1" pageWidth="827" pageHeight="1169" math="0" shadow="0">
      <root>
        <mxCell id="0" />
        <mxCell id="1" parent="0" />
        <mxCell id="mEeVF49X--B3QGPHo689-1" value="" style="rounded=0;whiteSpace=wrap;html=1;" vertex="1" parent="1">
          <mxGeometry x="230" y="280" width="320" height="200" as="geometry" />
        </mxCell>
        <mxCell id="mEeVF49X--B3QGPHo689-2" value="verwerkingseenheid" style="rounded=0;whiteSpace=wrap;html=1;fillColor=#dae8fc;strokeColor=#6c8ebf;" vertex="1" parent="1">
          <mxGeometry x="260" y="350" width="260" height="60" as="geometry" />
        </mxCell>
        <mxCell id="mEeVF49X--B3QGPHo689-3" value="programma" style="rounded=0;whiteSpace=wrap;html=1;fillColor=#f8cecc;strokeColor=#b85450;" vertex="1" parent="1">
          <mxGeometry x="260" y="300" width="120" height="30" as="geometry" />
        </mxCell>
        <mxCell id="mEeVF49X--B3QGPHo689-11" style="edgeStyle=orthogonalEdgeStyle;rounded=0;orthogonalLoop=1;jettySize=auto;html=1;entryX=0.5;entryY=1;entryDx=0;entryDy=0;startArrow=classic;startFill=1;" edge="1" parent="1" source="mEeVF49X--B3QGPHo689-4" target="mEeVF49X--B3QGPHo689-2">
          <mxGeometry relative="1" as="geometry" />
        </mxCell>
        <mxCell id="mEeVF49X--B3QGPHo689-4" value="werkgeheugen" style="rounded=0;whiteSpace=wrap;html=1;fillColor=#d5e8d4;strokeColor=#82b366;" vertex="1" parent="1">
          <mxGeometry x="330" y="430" width="120" height="30" as="geometry" />
        </mxCell>
        <mxCell id="mEeVF49X--B3QGPHo689-5" value="opslag" style="rounded=0;whiteSpace=wrap;html=1;fillColor=#fff2cc;strokeColor=#d6b656;" vertex="1" parent="1">
          <mxGeometry x="400" y="300" width="120" height="30" as="geometry" />
        </mxCell>
        <mxCell id="mEeVF49X--B3QGPHo689-9" style="edgeStyle=orthogonalEdgeStyle;rounded=0;orthogonalLoop=1;jettySize=auto;html=1;exitX=0.5;exitY=1;exitDx=0;exitDy=0;entryX=0.769;entryY=-0.006;entryDx=0;entryDy=0;entryPerimeter=0;startArrow=classic;startFill=1;" edge="1" parent="1" source="mEeVF49X--B3QGPHo689-5" target="mEeVF49X--B3QGPHo689-2">
          <mxGeometry relative="1" as="geometry" />
        </mxCell>
        <mxCell id="mEeVF49X--B3QGPHo689-10" style="edgeStyle=orthogonalEdgeStyle;rounded=0;orthogonalLoop=1;jettySize=auto;html=1;entryX=0.231;entryY=0;entryDx=0;entryDy=0;entryPerimeter=0;startArrow=classic;startFill=1;" edge="1" parent="1" source="mEeVF49X--B3QGPHo689-3" target="mEeVF49X--B3QGPHo689-2">
          <mxGeometry relative="1" as="geometry" />
        </mxCell>
        <mxCell id="mEeVF49X--B3QGPHo689-16" value="" style="shape=flexArrow;endArrow=classic;html=1;rounded=0;" edge="1" parent="1">
          <mxGeometry width="50" height="50" relative="1" as="geometry">
            <mxPoint x="160" y="379.5" as="sourcePoint" />
            <mxPoint x="230" y="379.5" as="targetPoint" />
            <Array as="points">
              <mxPoint x="210" y="379.5" />
            </Array>
          </mxGeometry>
        </mxCell>
        <mxCell id="mEeVF49X--B3QGPHo689-17" value="" style="shape=flexArrow;endArrow=classic;html=1;rounded=0;exitX=1;exitY=0.5;exitDx=0;exitDy=0;" edge="1" parent="1" source="mEeVF49X--B3QGPHo689-1">
          <mxGeometry width="50" height="50" relative="1" as="geometry">
            <mxPoint x="560" y="380" as="sourcePoint" />
            <mxPoint x="620" y="380" as="targetPoint" />
          </mxGeometry>
        </mxCell>
        <mxCell id="mEeVF49X--B3QGPHo689-18" value="invoer" style="text;html=1;align=center;verticalAlign=middle;whiteSpace=wrap;rounded=0;" vertex="1" parent="1">
          <mxGeometry x="150" y="380" width="60" height="30" as="geometry" />
        </mxCell>
        <mxCell id="mEeVF49X--B3QGPHo689-19" value="uitvoer" style="text;html=1;align=center;verticalAlign=middle;whiteSpace=wrap;rounded=0;" vertex="1" parent="1">
          <mxGeometry x="544" y="379" width="60" height="30" as="geometry" />
        </mxCell>
        <mxCell id="mEeVF49X--B3QGPHo689-20" value="" style="shape=flexArrow;endArrow=classic;startArrow=classic;html=1;rounded=0;dashed=1;dashPattern=1 1;" edge="1" parent="1">
          <mxGeometry width="100" height="100" relative="1" as="geometry">
            <mxPoint x="380" y="280" as="sourcePoint" />
            <mxPoint x="380" y="200" as="targetPoint" />
          </mxGeometry>
        </mxCell>
        <mxCell id="mEeVF49X--B3QGPHo689-21" value="Communicatie" style="text;html=1;align=center;verticalAlign=middle;whiteSpace=wrap;rounded=0;" vertex="1" parent="1">
          <mxGeometry x="390" y="226" width="76" height="30" as="geometry" />
        </mxCell>
      </root>
    </mxGraphModel>
  </diagram>
</mxfile>
